<?xml version="1.0"?>
<svg width="16" height="16" xmlns="http://www.w3.org/2000/svg" xmlns:svg="http://www.w3.org/2000/svg">
 <g class="layer">
  <title>Layer 1</title>
  <path d="m6.49,1a1,1 0 0 0 -1,1l0,3a1,1 0 0 0 1,1l1,0l0,0.99a1,1 0 0 0 -0.31,0.06l-2.05,0.69l-0.69,-2.05a1,1 0 0 0 -1.9,0.63l1,3a1,1 0 0 0 1.27,0.63l1.68,-0.56l0,0.61c0,0.04 0.02,0.08 0.03,0.12l-4.58,3.05a1,1 0 1 0 1.11,1.66l5.05,-3.37l1.5,2.99a1,1 0 0 0 1.21,0.5l3,-1a1,1 0 1 0 -0.63,-1.9l-2.18,0.73l-0.98,-1.95a0.98,0.98 0 0 0 0.47,-0.83l0,-1l1.39,0l0.72,1.45a1,1 0 1 0 1.79,-0.9l-1,-2a1,1 0 0 0 -0.9,-0.55l-3,0l0,-1l1,0a1,1 0 0 0 1,-1l0,-3a1,1 0 0 0 -1,-1l-4,0zm0,2l1,0l0,2l-1,0l0,-2z" fill="#fc001d" id="svg_1"/>
 </g>
</svg>